<svg id="Calque_1_-_copie" data-name="Calque 1 - copie" xmlns="http://www.w3.org/2000/svg" viewBox="0 0 204.51 204.51"><defs><style>.cls-1{fill:#1da1f2;}</style></defs><title>Plan de travail 1</title><path class="cls-1" d="M202.27,40.22a82.2,82.2,0,0,1-23.57,6.46,41.18,41.18,0,0,0,18-22.7,82.23,82.23,0,0,1-26.06,10A41.07,41.07,0,0,0,100.72,71.4,116.49,116.49,0,0,1,16.19,28.52,41.07,41.07,0,0,0,28.89,83.3a40.93,40.93,0,0,1-18.62-5.16v.52a41.06,41.06,0,0,0,32.92,40.23,41.14,41.14,0,0,1-18.53.7A41.07,41.07,0,0,0,63,148.08a82.31,82.31,0,0,1-51,17.57,84.31,84.31,0,0,1-9.79-.57,116.17,116.17,0,0,0,63,18.44c75.47,0,116.75-62.52,116.75-116.75q0-2.67-.12-5.31a83.51,83.51,0,0,0,20.47-21.24"/></svg>